HIERARCHY
ROOT hip
{
  OFFSET 0 0 0
  CHANNELS 6 Xposition Yposition Zposition Zrotation Yrotation Xrotation
  JOINT abdomen
  {
    OFFSET 0 20.6881 -0.73152
    CHANNELS 3 Zrotation Xrotation Yrotation
    JOINT chest
    {
      OFFSET 0 11.7043 -0.48768
      CHANNELS 3 Zrotation Xrotation Yrotation
      JOINT neck
      {
        OFFSET 0 22.1894 -2.19456
        CHANNELS 3 Zrotation Xrotation Yrotation
        JOINT head
        {
          OFFSET -0.24384 7.07133 1.2192
          CHANNELS 3 Zrotation Xrotation Yrotation
          JOINT leftEye
          {
            OFFSET 4.14528 8.04674 8.04672
            CHANNELS 3 Zrotation Xrotation Yrotation
            End Site
            {
              OFFSET 1 0 0
            }
          }
          JOINT rightEye
          {
            OFFSET -3.6576 8.04674 8.04672
            CHANNELS 3 Zrotation Xrotation Yrotation
            End Site
            {
              OFFSET 1 0 0
            }
          }
        }
      }
      JOINT rCollar
      {
        OFFSET -2.68224 19.2634 -4.8768
        CHANNELS 3 Zrotation Xrotation Yrotation
        JOINT rShldr
        {
          OFFSET -8.77824 -1.95073 1.46304
          CHANNELS 3 Zrotation Xrotation Yrotation
          JOINT rForeArm
          {
            OFFSET -28.1742 -1.7115 0.48768
            CHANNELS 3 Zrotation Xrotation Yrotation
            JOINT rHand
            {
              OFFSET -22.5879 0.773209 7.07136
              CHANNELS 3 Zrotation Xrotation Yrotation
              JOINT rThumb1
              {
                OFFSET -1.2192 -0.487915 3.41376
                CHANNELS 3 Zrotation Xrotation Yrotation
                JOINT rThumb2
                {
                  OFFSET -3.37035 -0.52449 3.41376
                  CHANNELS 3 Zrotation Xrotation Yrotation
                  End Site
                  {
                    OFFSET -1.78271 -1.18214 1.43049
                  }
                }
              }
              JOINT rIndex1
              {
                OFFSET -7.75947 0.938293 5.60832
                CHANNELS 3 Zrotation Xrotation Yrotation
                JOINT rIndex2
                {
                  OFFSET -2.54057 -0.884171 1.56538
                  CHANNELS 3 Zrotation Xrotation Yrotation
                  End Site
                  {
                    OFFSET -1.62519 -0.234802 1.16502
                  }
                }
              }
              JOINT rMid1
              {
                OFFSET -8.24714 1.18213 3.41376
                CHANNELS 3 Zrotation Xrotation Yrotation
                JOINT rMid2
                {
                  OFFSET -3.10165 -0.590103 1.0647
                  CHANNELS 3 Zrotation Xrotation Yrotation
                  End Site
                  {
                    OFFSET -2.48547 -0.328903 0.83742
                  }
                }
              }
              JOINT rRing1
              {
                OFFSET -8.82822 0.546677 1.51678
                CHANNELS 3 Zrotation Xrotation Yrotation
                JOINT rRing2
                {
                  OFFSET -2.60934 -0.819778 -0.0198488
                  CHANNELS 3 Zrotation Xrotation Yrotation
                  End Site
                  {
                    OFFSET -2.33842 -0.294052 0.168128
                  }
                }
              }
              JOINT rPinky1
              {
                OFFSET -8.27202 -0.0477905 -0.4584
                CHANNELS 3 Zrotation Xrotation Yrotation
                JOINT rPinky2
                {
                  OFFSET -1.82734 -0.647385 -0.700984
                  CHANNELS 3 Zrotation Xrotation Yrotation
                  End Site
                  {
                    OFFSET -1.69225 -0.51767 -0.607171
                  }
                }
              }
            }
          }
        }
      }
      JOINT lCollar
      {
        OFFSET 2.68224 19.2634 -4.8768
        CHANNELS 3 Zrotation Xrotation Yrotation
        JOINT lShldr
        {
          OFFSET 8.77824 -1.95073 1.46304
          CHANNELS 3 Zrotation Xrotation Yrotation
          JOINT lForeArm
          {
            OFFSET 28.1742 -1.7115 0.48768
            CHANNELS 3 Zrotation Xrotation Yrotation
            JOINT lHand
            {
              OFFSET 22.5879 0.773209 7.07136
              CHANNELS 3 Zrotation Xrotation Yrotation
              JOINT lThumb1
              {
                OFFSET 1.2192 -0.487915 3.41376
                CHANNELS 3 Zrotation Xrotation Yrotation
                JOINT lThumb2
                {
                  OFFSET 3.37035 -0.52449 3.41376
                  CHANNELS 3 Zrotation Xrotation Yrotation
                  End Site
                  {
                    OFFSET 1.78271 -1.18214 1.43049
                  }
                }
              }
              JOINT lIndex1
              {
                OFFSET 7.75947 0.938293 5.60832
                CHANNELS 3 Zrotation Xrotation Yrotation
                JOINT lIndex2
                {
                  OFFSET 2.54057 -0.884171 1.56538
                  CHANNELS 3 Zrotation Xrotation Yrotation
                  End Site
                  {
                    OFFSET 1.62519 -0.234802 1.16502
                  }
                }
              }
              JOINT lMid1
              {
                OFFSET 8.24714 1.18213 3.41376
                CHANNELS 3 Zrotation Xrotation Yrotation
                JOINT lMid2
                {
                  OFFSET 3.10165 -0.590103 1.0647
                  CHANNELS 3 Zrotation Xrotation Yrotation
                  End Site
                  {
                    OFFSET 2.48547 -0.328903 0.83742
                  }
                }
              }
              JOINT lRing1
              {
                OFFSET 8.82822 0.546677 1.51678
                CHANNELS 3 Zrotation Xrotation Yrotation
                JOINT lRing2
                {
                  OFFSET 2.60934 -0.819778 -0.0198488
                  CHANNELS 3 Zrotation Xrotation Yrotation
                  End Site
                  {
                    OFFSET 2.33842 -0.294052 0.168128
                  }
                }
              }
              JOINT lPinky1
              {
                OFFSET 8.27202 -0.0477905 -0.4584
                CHANNELS 3 Zrotation Xrotation Yrotation
                JOINT lPinky2
                {
                  OFFSET 1.82734 -0.647385 -0.700984
                  CHANNELS 3 Zrotation Xrotation Yrotation
                  End Site
                  {
                    OFFSET 1.69225 -0.51767 -0.607171
                  }
                }
              }
            }
          }
        }
      }
    }
  }
  JOINT rButtock
  {
    OFFSET -8.77824 4.35084 1.2192
    CHANNELS 3 Zrotation Xrotation Yrotation
    JOINT rThigh
    {
      OFFSET 0 -1.70687 -2.19456
      CHANNELS 3 Zrotation Xrotation Yrotation
      JOINT rShin
      {
        OFFSET 0 -36.8199 0.73152
        CHANNELS 3 Zrotation Xrotation Yrotation
        JOINT rFoot
        {
          OFFSET 0.73152 -45.1104 -5.12064
          CHANNELS 3 Zrotation Xrotation Yrotation
          End Site
          {
            OFFSET -1.1221 -3.69964 12.103
          }
        }
      }
    }
  }
  JOINT lButtock
  {
    OFFSET 8.77824 4.35084 1.2192
    CHANNELS 3 Zrotation Xrotation Yrotation
    JOINT lThigh
    {
      OFFSET 0 -1.70687 -2.19456
      CHANNELS 3 Zrotation Xrotation Yrotation
      JOINT lShin
      {
        OFFSET 0 -36.8199 0.73152
        CHANNELS 3 Zrotation Xrotation Yrotation
        JOINT lFoot
        {
          OFFSET -0.73152 -45.1104 -5.12064
          CHANNELS 3 Zrotation Xrotation Yrotation
          End Site
          {
            OFFSET 1.1221 -3.69964 12.103
          }
        }
      }
    }
  }
}
MOTION
Frames:	5
Frame Time:	0.03333
0.0 0.0 0.0 0.0 0.0 0.0 0.0 0.0 0.0 0.0 0.0 0.0 0.0 0.0 0.0 0.0 0.0 0.0 0.0 0.0 0.0 0.0 0.0 0.0 0.0 0.0 0.0 0.0 0.0 0.0 0.0 0.0 0.0 0.0 0.0 0.0 0.0 0.0 0.0 0.0 0.0 0.0 0.0 0.0 0.0 0.0 0.0 0.0 0.0 0.0 0.0 0.0 0.0 0.0 0.0 0.0 0.0 0.0 0.0 0.0 0.0 0.0 0.0 0.0 0.0 0.0 0.0 0.0 0.0 0.0 0.0 0.0 0.0 0.0 0.0 0.0 0.0 0.0 0.0 0.0 0.0 0.0 0.0 0.0 0.0 0.0 0.0 0.0 0.0 0.0 0.0 0.0 0.0 0.0 0.0 0.0 0.0 0.0 0.0 0.0 0.0 0.0 0.0 0.0 0.0 0.0 0.0 0.0 0.0 0.0 0.0 0.0 0.0 0.0 0.0 0.0 0.0 0.0 0.0 0.0 0.0 0.0 0.0 0.0 0.0 0.0 0.0 0.0 0.0 0.0 0.0 0.0
2.2286 53.956199999999995 -6.2291 -10.447122 -61.361172 10.247158 -3.442478 11.261276 -162.879102 -0.167449 2.185522 167.306213 -11.011292 24.415855 -79.955535 40.189684 10.253054 99.443104 -0.000962 0.0 -0.00366 -0.000962 0.0 -0.00366 -0.272555 1.606873 0.360806 65.236474 6.089492 -35.453105 -2.854128 21.306828 111.962875 -12.629721 -44.931023 -11.452564 93.028806 -51.084313 40.50039 -16.379897 -43.347766 -29.862952 -150.565604 -15.701404 120.871013 82.474675 -69.229833 30.858472 -36.035229 51.723694 29.831256 -83.149692 64.251223 75.293046 -0.000875 0.022558 0.007552 11.109695 -13.792288 -1.71575 -1.148534 -2.914597 -1.065609 -146.007498 7.590249 -142.681183 149.850354 22.601547 -154.913467 9.433522 5.274728 44.841287 -119.635899 62.759167 107.659232 174.243648 62.027724 -162.169526 173.976574 -11.643314 -89.881674 -118.732847 -62.257952 -87.874511 150.884646 -16.291256 -120.97971 19.207621 42.425894 -8.513008 160.573506 -6.35924 -143.198452 175.520657 -39.363884 -142.848724 -0.002625 0.917753 -0.288564 15.682514 69.587556 -28.521309 145.499346 13.103939 142.110582 -16.189451 41.618489 -5.891258 0.0 0.000458 -0.000384 -11.920779 -17.214454 -3.804201 -69.123274 64.593756 -9.994522 12.019772 -56.376203 81.782736 -0.00041 -0.000697 0.000528 40.944804 -58.221389 -24.108252 -55.283964 27.739095 -42.332108 112.740327 -21.674589 -135.476315
3.7657999999999996 55.092 -9.7176 -10.145332 -59.622838 8.847671 -2.468559 12.474037 -155.324154 1.085461 0.970491 159.797562 4.403144 33.055033 165.254372 -16.348963 44.473002 -138.546049 -0.003859 0.0 -0.004354 0.001864 -0.0 -0.004473 -142.973473 39.431479 147.389754 -117.163657 7.771843 98.995001 -108.345666 48.565476 -122.800592 -39.330309 -85.20708 -52.342523 -149.677414 11.797922 86.05952 24.849372 -51.310807 26.978881 37.21476 -57.918177 -0.645034 127.50591 -64.821453 65.594001 -36.036945 51.722462 29.833556 -7.186401 26.203027 6.140408 0.002588 1.769594 0.555425 11.368723 -41.086775 -5.016331 -144.109998 8.781402 -140.875173 -167.223982 65.28755 -145.21642 149.905715 22.421932 -154.975624 -85.722621 49.85826 96.219659 132.910692 27.446884 -137.561395 -15.474191 -15.331204 -16.882778 -81.971612 -50.0912 -32.723206 68.364457 -86.189538 108.197192 -60.461099 -70.523898 -15.710232 171.84619 -38.13922 -111.145755 125.645693 49.84088 -115.275003 151.498446 24.829334 -136.904899 0.00076 -0.018488 0.0061 156.43464 -23.134314 -174.559894 156.383573 53.734265 150.116761 153.900024 29.529503 145.363491 0.000645 0.001508 -0.000829 -6.699855 -17.970494 -59.53884 -81.403055 6.683196 7.138331 77.63393 46.044606 30.777498 1.5e-05 0.000341 -2e-05 33.507485 -55.016604 -49.98187 -45.645783 12.597791 -12.420774 5.211946 -54.865424 123.554672
5.9123 56.088899999999995 -13.415 -10.321133 -57.318307 8.395257 -2.37747 18.040714 4.335763 -0.636711 -5.550524 0.576716 10.088899 26.989137 115.397773 -36.510666 21.274736 -91.16059 0.001346 0.0 0.00237 0.001084 -0.0 -0.001002 -152.942115 10.523481 158.536139 -94.509236 23.212945 66.74876 -14.102755 -20.149945 -150.907222 -156.327858 11.270325 140.278728 -171.654664 -9.335769 89.949517 -17.475725 -42.415094 3.730206 -172.896499 -51.893913 120.181876 -70.211167 56.925229 56.480256 -161.153948 -8.160476 143.465467 -164.047661 -7.046343 143.18835 -0.002195 0.063942 0.019014 -156.11686 -13.745268 173.481371 -11.663037 -23.130407 -11.07164 -154.483281 39.137693 -148.55809 9.651668 34.836221 -11.199013 107.725345 39.283967 -73.504162 -18.676957 -4.010223 55.548077 -149.657513 -36.544075 -141.901559 -175.88013 -21.257526 -88.492203 -121.47267 -67.825844 -92.821304 4.705374 7.224199 -2.855676 -7.61623 4.406307 -0.218218 8.417902 20.880093 -5.645946 42.022217 58.557277 -36.136786 0.000234 -0.060825 0.019249 -11.553011 -29.447955 3.526346 146.212884 15.428456 142.73635 162.468689 55.852854 146.673837 -0.00245 0.000396 -0.001225 -4.404118 -17.878227 -1.437874 -57.737676 63.523051 11.995874 106.408802 13.423488 5.809602 -0.00033 0.000396 0.000424 27.421345 -52.834913 -146.933712 -13.990925 -29.281164 101.350557 -8.462416 22.356839 46.440643
8.4557 56.897299999999994 -17.5392 -8.65347 -53.823358 7.480469 -0.29374 14.457267 -145.896246 2.408008 0.476386 149.724109 -9.666097 29.621034 -111.220026 39.03016 27.676953 118.649907 0.002383 -0.0 -0.003642 0.002305 0.0 0.001028 -150.169025 21.535354 155.275522 -115.752743 22.564564 83.365533 -175.168679 43.57843 -73.322554 -13.546662 -39.082342 -9.916387 114.538161 -50.244807 55.721861 -137.635115 21.554657 92.946 -149.817004 -14.31749 120.600049 132.527878 -69.487869 76.162614 -154.142511 11.634625 139.428854 30.002022 -60.061965 7.071255 -145.114312 -0.356552 -179.017003 -73.666744 -78.003556 -95.218486 -86.000509 -50.500031 -84.371491 -81.428661 -53.290786 -81.953352 -0.118123 -0.714043 0.157948 119.301296 15.290672 -102.289903 -3.599482 -9.423732 60.49426 -135.245595 -51.028718 -126.954133 -93.0285 -51.084557 -40.5008 25.213555 -13.670503 17.94706 -20.933656 -37.332283 5.936033 -156.963973 -56.263595 -89.878389 36.034794 51.724168 -29.830237 -80.70149 -77.898964 -52.071427 0.059931 -3.427869 1.080491 52.472401 -86.654946 74.250493 150.310251 30.005463 146.14983 104.974856 -46.384833 103.370225 -179.992897 75.749389 -0.006267 175.176668 55.694879 -0.0 -38.164762 68.544442 69.877627 170.025682 -30.530982 62.556636 -179.955482 75.750002 -0.033261 -164.454435 20.871386 -114.820713 -31.10021 -6.217213 -35.940864 5.424861 -7.145818 135.893964
